<?xml version="1.0" encoding="utf-8"?>
<!-- Generator: Adobe Illustrator 16.2.1, SVG Export Plug-In . SVG Version: 6.00 Build 0)  -->
<!DOCTYPE svg PUBLIC "-//W3C//DTD SVG 1.1//EN" "http://www.w3.org/Graphics/SVG/1.1/DTD/svg11.dtd">
<svg version="1.1" id="Layer_1" xmlns="http://www.w3.org/2000/svg" xmlns:xlink="http://www.w3.org/1999/xlink" x="0px" y="0px"
	 width="269px" height="67px" viewBox="0 0 269 67" enable-background="new 0 0 269 67" xml:space="preserve">
<g>
	<path fill="#FFFFFF" d="M27.3,10.4l-5.4,3.2c-1-1.8-2-2.9-2.9-3.4c-1-0.6-2.2-0.9-3.7-0.9c-1.9,0-3.4,0.5-4.6,1.6
		c-1.2,1-1.8,2.3-1.8,3.9c0,2.2,1.6,3.9,4.8,5.2l4.4,1.8c3.6,1.5,6.2,3.2,7.9,5.3s2.5,4.7,2.5,7.7c0,4.101-1.4,7.5-4.1,10.101
		c-2.7,2.699-6.1,4-10.2,4c-3.8,0-7-1.101-9.5-3.4s-4-5.5-4.6-9.6l6.8-1.5C7.2,37,7.7,38.8,8.5,39.8c1.4,1.9,3.4,2.9,6,2.9
		c2.1,0,3.8-0.7,5.2-2.101c1.4-1.399,2.1-3.199,2.1-5.3c0-0.899-0.1-1.7-0.4-2.4c-0.2-0.7-0.6-1.4-1.1-2s-1.2-1.2-2-1.7
		c-0.8-0.5-1.8-1-2.9-1.5L11.1,26C5,23.4,2,19.7,2,14.7c0-3.3,1.3-6.1,3.8-8.4C8.3,4.1,11.5,3,15.3,3C20.4,3,24.4,5.5,27.3,10.4z"/>
	<path fill="#FFFFFF" d="M38.5,20.2v16.1c0,4.601,1.8,7,5.5,7s5.5-2.3,5.5-7V20.2H56v16.2c0,2.199-0.3,4.199-0.8,5.8
		c-0.5,1.5-1.5,2.8-2.8,3.899C50.1,48,47.4,49,44,49s-6.1-0.9-8.3-2.8c-1.3-1.2-2.3-2.5-2.8-3.9C32.3,40.9,32,39,32,36.4V20.2H38.5z
		"/>
	<path fill="#FFFFFF" d="M67.4,42.6h14.3V48.2H59.1v-5.8L74.3,25.8H60.1v-5.6h21.7v5.9L67.4,42.6z"/>
	<path fill="#FFFFFF" d="M96,42.8L83.6,20.2h7.5l8.6,16.1l8-16.1h7.3L90.3,66.5h-6.9L96,42.8z"/>
	<path fill="#FFFFFF" d="M122.8,48.2V3.8h9.3c4.5,0,8,0.4,10.6,1.3c2.8,0.9,5.3,2.3,7.6,4.4c4.601,4.2,6.9,9.7,6.9,16.5
		s-2.4,12.3-7.2,16.5c-2.4,2.1-4.9,3.6-7.5,4.4c-2.5,0.8-5.9,1.199-10.4,1.199h-9.3V48.2z M129.4,41.9h3c3,0,5.5-0.301,7.5-0.9
		c2-0.7,3.8-1.7,5.399-3.2c3.3-3,4.9-6.9,4.9-11.7c0-4.9-1.601-8.8-4.9-11.8c-2.899-2.7-7.2-4.1-13-4.1h-3v31.7H129.4z"/>
	<path fill="#FFFFFF" d="M181.7,20.2h6.5v28h-6.5v-2.9c-2.7,2.5-5.5,3.7-8.601,3.7c-3.899,0-7.1-1.4-9.6-4.2
		c-2.5-2.899-3.8-6.399-3.8-10.7c0-4.2,1.3-7.7,3.8-10.5c2.5-2.8,5.6-4.2,9.4-4.2c3.3,0,6.199,1.3,8.8,4V20.2L181.7,20.2z
		 M166.4,34.1c0,2.7,0.699,4.9,2.199,6.5c1.5,1.7,3.301,2.601,5.601,2.601c2.399,0,4.3-0.8,5.8-2.5s2.2-3.9,2.2-6.5
		c0-2.6-0.7-4.8-2.2-6.5c-1.5-1.7-3.4-2.5-5.7-2.5c-2.2,0-4.1,0.8-5.6,2.5C167.1,29.5,166.4,31.6,166.4,34.1z"/>
	<path fill="#FFFFFF" d="M239.5,20.2h6.5v28h-6.5v-2.9c-2.7,2.5-5.5,3.7-8.6,3.7c-3.9,0-7.101-1.4-9.601-4.2
		c-2.5-2.899-3.8-6.399-3.8-10.7c0-4.2,1.3-7.7,3.8-10.5c2.5-2.8,5.601-4.2,9.4-4.2c3.3,0,6.2,1.3,8.8,4V20.2z M224.1,34.1
		c0,2.7,0.7,4.9,2.2,6.5c1.5,1.7,3.3,2.601,5.601,2.601c2.399,0,4.3-0.8,5.8-2.5s2.2-3.9,2.2-6.5c0-2.6-0.7-4.8-2.2-6.5
		c-1.5-1.7-3.4-2.5-5.7-2.5c-2.2,0-4.1,0.8-5.6,2.5C224.9,29.5,224.1,31.6,224.1,34.1z"/>
	<path fill="#FFFFFF" d="M267.2,25l-5.3,2.8c-0.801-1.7-1.9-2.6-3.101-2.6c-0.6,0-1.1,0.2-1.5,0.6c-0.399,0.4-0.6,0.9-0.6,1.5
		c0,1.1,1.2,2.1,3.7,3.2c3.399,1.5,5.699,2.8,6.899,4.1c1.2,1.2,1.8,2.9,1.8,5c0,2.7-1,5-3,6.801c-1.899,1.699-4.3,2.6-7,2.6
		c-4.699,0-8-2.3-10-6.9l5.5-2.6c0.801,1.3,1.4,2.2,1.801,2.6c0.8,0.7,1.699,1.101,2.8,1.101c2.2,0,3.3-1,3.3-3
		c0-1.101-0.8-2.2-2.5-3.2c-0.7-0.3-1.3-0.6-2-0.9c-0.7-0.3-1.3-0.6-2-0.899c-1.9-0.9-3.2-1.8-4-2.8c-1-1.2-1.5-2.7-1.5-4.5
		c0-2.4,0.8-4.4,2.5-6s3.8-2.4,6.2-2.4C262.8,19.4,265.4,21.3,267.2,25z"/>
	<g>
		<path fill="#FFFFFF" d="M200.5,0v48.2H194V0H200.5z"/>
		<path fill="#FFFFFF" d="M213.8,0v48.2h-6.5V0H213.8z"/>
	</g>
</g>
</svg>
