<?xml version="1.0" encoding="utf-8"?>
<!-- Generator: Adobe Illustrator 16.0.0, SVG Export Plug-In . SVG Version: 6.00 Build 0)  -->
<!DOCTYPE svg PUBLIC "-//W3C//DTD SVG 1.1//EN" "http://www.w3.org/Graphics/SVG/1.1/DTD/svg11.dtd">
<svg version="1.1" id="Layer_1" xmlns="http://www.w3.org/2000/svg" xmlns:xlink="http://www.w3.org/1999/xlink" x="0px" y="0px"
	 width="38.5px" height="188.2px" viewBox="15.2 11.2 38.5 188.2" style="enable-background:new 0 0 38.5 188.2;" xml:space="preserve">
<style type="text/css">
<![CDATA[
	.st0{fill:none;stroke:#BFBFBF;stroke-width:2;stroke-linecap:round;stroke-linejoin:round;stroke-miterlimit:10;}
	.st1{fill:#BFBFBF;}
]]>
</style>
<path class="st1" d="M46.6,24.3c1.4-0.1,3.5-1,3.5-1c-0.3,0.8-3.2,3.2-3.2,3.2c0,0.4,0,0.7,0,1.1c0,0.1,0,0.1,0,0.2
	c0,0.2,0,0.4,0,0.6c0,0.3,0,0.5-0.1,0.8c0,0.2,0,0.4-0.1,0.6c0,0.2-0.1,0.5-0.1,0.7s-0.1,0.3-0.1,0.5c-0.1,0.2-0.1,0.4-0.2,0.7
	c0,0.2-0.1,0.3-0.1,0.5c-0.1,0.2-0.1,0.4-0.2,0.6c0,0.1-0.1,0.3-0.1,0.4c-0.1,0.2-0.1,0.4-0.2,0.6c0,0.1-0.1,0.2-0.1,0.3
	c-0.1,0.2-0.2,0.4-0.2,0.5s-0.1,0.1-0.1,0.2c-0.1,0.2-0.2,0.4-0.2,0.5c-0.6,1.2-3.3,6.6-11.1,8.8c-0.4,0.1-0.9,0.2-1.3,0.3
	c-0.1,0-0.3,0-0.4,0.1c-0.3,0-0.6,0.1-0.9,0.1c-0.1,0-0.3,0-0.4,0c-0.3,0-0.6,0-0.9,0c-0.1,0-0.2,0-0.4,0h-0.1c-0.1,0-0.1,0-0.2,0
	c-0.6,0-1.1,0-1.6-0.1c-0.1,0-0.2,0-0.3,0c-0.6-0.1-1.1-0.2-1.6-0.3c-0.1,0-0.2-0.1-0.3-0.1c-0.5-0.1-1-0.2-1.4-0.4l0,0
	c-0.5-0.1-0.9-0.3-1.2-0.5c-0.1,0-0.2-0.1-0.2-0.1c-0.4-0.1-0.7-0.3-1-0.4c-0.1,0-0.1,0-0.1-0.1c-0.3-0.1-0.5-0.2-0.7-0.4
	c0,0-0.1,0-0.1-0.1c-0.2-0.1-0.3-0.2-0.5-0.3c0,0-0.1,0-0.1-0.1c-0.1-0.1-0.1-0.1-0.1-0.1c0.6,0.1,1.2,0.1,1.8,0.1
	c0.2,0,0.5,0,0.7,0c0.3,0,0.7-0.1,1-0.1c0.2,0,0.4-0.1,0.7-0.1c0.3-0.1,0.6-0.1,0.8-0.2c0.2-0.1,0.4-0.1,0.6-0.2s0.5-0.2,0.7-0.3
	c0.2-0.1,0.3-0.1,0.5-0.2s0.4-0.2,0.6-0.3c0.1-0.1,0.2-0.1,0.4-0.2s0.3-0.2,0.5-0.3c0.1-0.1,0.2-0.1,0.2-0.2
	c0.1-0.1,0.2-0.2,0.3-0.2l0.1-0.1c0.1-0.1,0.1-0.1,0.1-0.1c-4.6-0.4-5.5-4.2-5.5-4.2c0.2,0,0.5,0.1,0.6,0.1c0.1,0,0.1,0,0.2,0
	s0.2,0,0.3,0c0.2,0,0.4,0,0.6,0h0.1c0.1,0,0.2-0.1,0.3-0.1l0,0c0.1,0,0.2-0.1,0.2-0.1l0,0l0,0c-0.5-0.1-1-0.3-1.4-0.5
	c-0.1,0-0.1-0.1-0.2-0.1c-0.4-0.2-0.7-0.4-1-0.6c-0.1,0-0.1-0.1-0.2-0.1c-0.3-0.2-0.5-0.5-0.7-0.7l-0.1-0.1
	c-0.2-0.3-0.4-0.5-0.5-0.8l0,0c-0.1-0.3-0.2-0.5-0.3-0.8v-0.1c-0.1-0.2-0.1-0.5-0.2-0.7v-0.1c0-0.2-0.1-0.4-0.1-0.5v-0.1
	c0-0.2,0-0.3,0-0.4l0,0v-0.1c0,0,0,0,0-0.1l0,0c0.3,0.1,0.5,0.2,0.7,0.3c0.1,0,0.1,0.1,0.2,0.1c0.1,0,0.3,0.1,0.4,0.1
	c0.1,0,0.1,0,0.2,0c0.1,0,0.2,0,0.3,0.1c0.1,0,0.1,0,0.2,0c0.1,0,0.1,0,0.2,0h0.1c0.1,0,0.2,0,0.3,0l0,0H24
	c-0.3-0.2-0.5-0.4-0.7-0.6c-0.1-0.1-0.1-0.1-0.2-0.2c-0.1-0.1-0.3-0.3-0.4-0.4c-0.1-0.1-0.1-0.2-0.2-0.3c-0.1-0.1-0.2-0.3-0.3-0.4
	c-0.1-0.1-0.1-0.2-0.2-0.3s-0.1-0.3-0.2-0.4c0-0.1-0.1-0.2-0.1-0.3c0-0.1-0.1-0.3-0.1-0.4s-0.1-0.2-0.1-0.3s-0.1-0.2-0.1-0.4
	c0-0.1,0-0.2,0-0.3s0-0.2,0-0.4c0-0.1,0-0.2,0-0.2s0,0,0-0.1c0-0.1,0-0.1,0-0.2s0-0.2,0-0.4c0-0.1,0-0.2,0-0.3c0-0.1,0-0.2,0.1-0.3
	c0-0.1,0-0.2,0.1-0.2c0-0.1,0-0.2,0.1-0.3c0-0.1,0-0.1,0.1-0.2c0-0.1,0.1-0.2,0.1-0.2c0-0.1,0-0.1,0.1-0.2c0-0.1,0.1-0.1,0.1-0.2
	c0,0,0-0.1,0.1-0.1c0-0.1,0.1-0.1,0.1-0.2v-0.1c0-0.1,0-0.1,0.1-0.1l0,0v-0.1c0.4,0.4,0.7,0.8,1.1,1.1c0.1,0.1,0.2,0.2,0.4,0.3
	c0.2,0.2,0.5,0.4,0.7,0.6c0.1,0.1,0.3,0.2,0.4,0.3c0.2,0.2,0.4,0.3,0.6,0.5c0.1,0.1,0.3,0.2,0.4,0.3c0.2,0.1,0.4,0.3,0.6,0.4
	c0.1,0.1,0.3,0.2,0.4,0.3c0.2,0.1,0.4,0.2,0.6,0.4c0.1,0.1,0.3,0.2,0.4,0.2c0.2,0.1,0.4,0.2,0.6,0.3c0.1,0.1,0.3,0.1,0.4,0.2
	c0.2,0.1,0.4,0.2,0.6,0.3c0.1,0,0.2,0.1,0.3,0.1c0.6,0.2,1.2,0.4,1.7,0.5c0.1,0,0.2,0,0.2,0.1c0.2,0,0.3,0.1,0.5,0.1
	c0.1,0,0.2,0,0.3,0c0.1,0,0.3,0,0.4,0.1c0.1,0,0.2,0,0.2,0c0.1,0,0.2,0,0.4,0c0.1,0,0.1,0,0.2,0c0.1,0,0.2,0,0.3,0h0.1
	c0.1,0,0.2,0,0.2,0h0.1c0.1,0,0.1,0,0.2,0l0,0h0.1c0-0.2,0-0.4,0-0.6c0-0.1,0-0.1,0-0.2s0-0.1,0-0.2c0-0.1,0-0.2,0-0.3s0-0.2,0-0.3
	c0-0.2,0-0.5,0.1-0.8v-0.1c0.1-0.3,0.1-0.6,0.2-0.9c0-0.1,0.1-0.2,0.1-0.3c0.1-0.2,0.2-0.4,0.3-0.7c0.1-0.1,0.1-0.2,0.2-0.3
	c0.1-0.2,0.3-0.4,0.4-0.6c0.1-0.1,0.2-0.2,0.3-0.3c0.2-0.2,0.4-0.4,0.6-0.5c0.1-0.1,0.2-0.2,0.3-0.2c0.4-0.2,0.8-0.5,1.2-0.6
	c0.4-0.1,0.7-0.2,1.1-0.3c0.1,0,0.1,0,0.2,0c0.3-0.1,0.7-0.1,1-0.1c0,0,0,0,0.1,0H41c0.3,0,0.5,0,0.8,0.1h0.1c0.3,0,0.5,0.1,0.8,0.2
	c0.1,0,0.1,0,0.2,0.1c0.2,0.1,0.5,0.2,0.7,0.3c0,0,0,0,0.1,0c0.2,0.1,0.4,0.2,0.5,0.3c0,0,0.1,0,0.1,0.1c0.2,0.1,0.3,0.2,0.5,0.3
	c0,0,0.1,0,0.1,0.1c0.1,0.1,0.2,0.2,0.3,0.2l0,0c0.1,0.1,0.2,0.1,0.2,0.2l0,0l0.1,0.1c1.6-0.1,4.3-1.5,4.3-1.5
	C49.4,22.5,46.6,24.3,46.6,24.3z"/>
<path class="st1" d="M34.7,69.3c-0.4,0-1,0.2-1,1.2V73h3.6l-0.4,4.3h-3.1c0,5.4,0,12,0,12h-4.7c0,0,0-6.5,0-12h-2.4V73H29v-2.8
	c0-2,0.9-5,4.8-5h3.8v4C37.6,69.3,35.2,69.3,34.7,69.3z"/>
<path class="st0" d="M27.5,114c1.5,1.7,3,3.4,4.6,5.1c2.2-2,4-3.6,5.7-5.1"/>
<path class="st0" d="M35.5,137c-2.8,2.4-5.6,4.7-9.5,7.9c4.1,3.5,7.1,6,10,8.6"/>
<path class="st0" d="M26.5,185.5c2.8-2.4,5.6-4.7,9.5-7.9c-4.1-3.5-7.1-6-10-8.6"/>
</svg>
